<svg width="150" height="50" viewBox="0 0 150 50" fill="none" xmlns="http://www.w3.org/2000/svg">
<path d="M25.4129 13.8884H32.724C35.7732 13.8884 38.9957 14.3389 41.837 17.0762C43.8813 19.0513 45.1634 21.754 45.1634 25.3576C45.1634 28.9958 43.916 31.6292 42.0102 33.535C38.8224 36.7574 34.8377 37 32.8973 37H25.4129V13.8884ZM30.749 18.3929V32.4955H32.1696C33.2784 32.4955 35.7039 32.3915 37.4364 30.9362C38.6838 29.8967 39.6887 27.9217 39.6887 25.3576C39.6887 22.8628 38.6838 21.2689 37.7829 20.368C36.0504 18.6355 33.7982 18.3929 32.1696 18.3929H30.749ZM60.4638 13.8884V18.3929H52.7368V22.8628H60.0826V27.3673H52.7368V32.4955H60.4638V37H47.4007V13.8884H60.4638ZM77.3714 15.6556L74.9805 19.5364C73.248 17.9771 71.7581 17.8732 71.0997 17.8732C70.3721 17.8732 69.4712 17.9771 68.8475 18.6701C68.501 19.0166 68.2584 19.5364 68.2584 20.1254C68.2584 20.6798 68.4317 21.0956 68.7782 21.4075C69.3326 21.9272 70.1295 22.1351 71.6888 22.7242L73.4213 23.3825C74.4261 23.7637 75.6735 24.2834 76.5744 25.1497C77.9258 26.4317 78.2723 28.0949 78.2723 29.4463C78.2723 31.8371 77.4407 33.9161 76.2279 35.1635C74.1836 37.3119 71.2037 37.5198 69.6791 37.5198C68.0159 37.5198 66.5606 37.2772 65.1053 36.5495C63.9272 35.9605 62.5758 34.8863 61.7096 34.0201L64.4816 30.2086C65.0706 30.7976 66.0062 31.5946 66.6299 31.9757C67.5308 32.5301 68.4663 32.8073 69.5405 32.8073C70.2335 32.8073 71.2037 32.6687 71.966 32.0104C72.4164 31.6292 72.7976 31.0055 72.7976 30.1393C72.7976 29.377 72.4857 28.8919 72.0006 28.4761C71.3769 27.9563 69.9563 27.4366 69.2979 27.194L67.3922 26.5357C66.318 26.1545 65.0706 25.6694 64.1697 24.6992C62.957 23.4172 62.7837 21.7886 62.7837 20.6798C62.7837 18.6355 63.4074 16.903 64.7934 15.4823C66.422 13.8191 68.3624 13.3687 70.5107 13.3687C72.1046 13.3687 74.6687 13.6459 77.3714 15.6556ZM80.4831 13.8884H85.8192V37H80.4831V13.8884ZM100.361 28.684V24.3874H111.83V24.6299C111.83 27.4366 110.825 31.6985 108.261 34.3666C105.697 37.0347 102.751 37.5198 100.014 37.5198C97.2421 37.5198 94.2622 37.0693 91.5595 34.2973C90.2081 32.9113 88.1638 30.1046 88.1638 25.4962C88.1638 21.7193 89.5498 18.7048 91.4902 16.7297C94.3315 13.7845 97.8311 13.3687 100.568 13.3687C102.474 13.3687 104.9 13.6805 107.048 15.1012C108.607 16.1407 109.959 17.7692 110.79 19.2245L105.974 21.8233C105.523 20.9224 104.83 19.9868 103.93 19.3285C102.89 18.5662 101.712 18.2197 100.395 18.2197C98.2816 18.2197 96.7223 18.9127 95.6135 20.0908C94.3315 21.4421 93.6385 23.4172 93.6385 25.5655C93.6385 28.1989 94.6087 29.8967 95.5789 30.8669C96.9302 32.2529 98.4895 32.6687 100.257 32.6687C102.544 32.6687 103.756 31.8718 104.276 31.4213C104.449 31.2827 105.489 30.3818 105.939 28.684H100.361ZM119.404 37H114.068V13.8884H118.711L131.255 28.7879V13.8884H136.591V37H131.948L119.404 22.0312V37Z" fill="black"/>
<path d="M19.9639 18.8076V13.8906H21.3896V18.8125C21.3896 19.2845 21.2985 19.693 21.1162 20.0381C20.9372 20.3799 20.693 20.6419 20.3838 20.8242C20.0745 21.0065 19.7262 21.0977 19.3389 21.0977C18.9417 21.0977 18.5869 21.0195 18.2744 20.8633C17.9652 20.7038 17.721 20.4629 17.542 20.1406C17.363 19.8151 17.2734 19.4017 17.2734 18.9004H18.709C18.709 19.1543 18.735 19.3545 18.7871 19.501C18.8392 19.6475 18.9124 19.7533 19.0068 19.8184C19.1045 19.8835 19.2152 19.916 19.3389 19.916C19.4723 19.916 19.5846 19.8721 19.6758 19.7842C19.7702 19.6963 19.8418 19.571 19.8906 19.4082C19.9395 19.2422 19.9639 19.042 19.9639 18.8076Z" fill="black"/>
<path d="M17.3125 21.8906H19.5928C20.068 21.8906 20.4733 21.972 20.8086 22.1348C21.1439 22.2975 21.401 22.5384 21.5801 22.8574C21.7591 23.1764 21.8486 23.5703 21.8486 24.0391C21.8486 24.4232 21.7965 24.752 21.6924 25.0254C21.5882 25.2956 21.4401 25.5218 21.248 25.7041C21.056 25.8831 20.8265 26.0264 20.5596 26.1338L20.125 26.3926H18.2744L18.2695 25.2061H19.5537C19.749 25.2061 19.9102 25.1637 20.0371 25.0791C20.1673 24.9912 20.2633 24.8691 20.3252 24.7129C20.3903 24.5534 20.4229 24.3678 20.4229 24.1562C20.4229 23.9316 20.3936 23.7396 20.335 23.5801C20.2796 23.4173 20.1901 23.2936 20.0664 23.209C19.946 23.1211 19.7881 23.0771 19.5928 23.0771H18.7432V29H17.3125V21.8906ZM20.54 29L19.2363 25.8311L20.7354 25.8262L22.0684 28.9316V29H20.54Z" fill="black"/>
<path d="M17.7764 35.9355L18.9141 29.8906H19.666L19.8906 30.8281L18.6699 37H17.8545L17.7764 35.9355ZM17.3857 29.8906L18.3037 35.9502L18.1475 37H17.249L15.9746 29.8906H17.3857ZM20.7158 35.9258L21.6289 29.8906H23.0352L21.7705 37H20.8672L20.7158 35.9258ZM20.1006 29.8906L21.248 35.9697L21.1553 37H20.3398L19.124 30.8184L19.3535 29.8906H20.1006Z" fill="black"/>
</svg>
